<?xml version="1.0" encoding="utf-8"?>
<!-- Generator: Adobe Illustrator 19.0.0, SVG Export Plug-In . SVG Version: 6.00 Build 0)  -->
<svg version="1.1" id="Guías" xmlns="http://www.w3.org/2000/svg" xmlns:xlink="http://www.w3.org/1999/xlink" x="0px" y="0px"
	 viewBox="-441 258 75.4 45" style="enable-background:new -441 258 75.4 45;" xml:space="preserve">
<style type="text/css">
	.st0{fill:#2A7FFF;}
	.st1{fill:#ED2024;}
	.st2{fill:#FFFFFF;}
</style>
<g>
	<g>
		<path class="st0" d="M-422.7,277.9c9.4,2.1,13.7,5.5,13.7,12c0,7.3-6,11.9-14.3,11.9c-6.7,0-12.1-2.2-17.2-6.7l2.9-3.5
			c4.4,4,8.6,5.9,14.4,5.9c5.6,0,9.4-2.9,9.4-7.2c0-4-2.1-6.2-10.9-8c-9.7-2.1-14.1-5.2-14.1-12.2c0-6.7,5.8-11.5,13.8-11.5
			c6.1,0,10.5,1.7,14.8,5.2l-2.8,3.6c-3.9-3.2-7.8-4.6-12.1-4.6c-5.5,0-8.9,3-8.9,6.8C-434.1,273.7-431.9,275.9-422.7,277.9z"/>
	</g>
</g>
<rect x="-395.8" y="281.8" class="st1" width="29.5" height="19.3"/>
<g>
	<path class="st2" d="M-393.9,292.2L-393.9,292.2c0-3.3,2-6.2,4.8-6.2c2,0,3.3,1.3,4,3.2l-2.7,2c-0.2-0.7-0.6-1.2-1.2-1.2
		c-0.8,0-1.4,0.9-1.4,2.1l0,0c0,1.2,0.6,2.1,1.3,2.1c0.7,0,1-0.4,1.4-1.2l2.7,2c-0.8,2-2.1,3.2-4.3,3.2
		C-392,298.3-393.9,295.5-393.9,292.2z"/>
	<path class="st2" d="M-384.8,294.6L-384.8,294.6c0-2.4,1.3-3.7,3.4-3.7c0.7,0,1.7,0.2,2.1,0.4v-0.2c0-1.1-0.5-1.7-1.6-1.7
		c-0.9,0-1.7,0.3-2.5,0.7l-0.7-3.2c1-0.5,2.2-0.9,3.7-0.9c1.8,0,3,0.5,3.8,1.5c0.7,0.9,0.9,2,0.9,3.7v6.8h-3.7v-1.2
		c-0.6,0.9-1.4,1.5-2.6,1.5C-383.6,298.3-384.8,297-384.8,294.6z M-379.3,293.6v-0.5c-0.2-0.1-0.5-0.2-0.8-0.2
		c-0.7,0-1.1,0.6-1.1,1.3l0,0c0,0.7,0.4,1.1,0.8,1.1C-379.8,295.4-379.3,294.8-379.3,293.6z"/>
	<path class="st2" d="M-374,294v-4h-1v-3.8h1v-2.9h3.7v2.9h2v3.8h-2v3c0,0.9,0.3,1.2,0.9,1.2c0.3,0,0.7-0.1,1.1-0.4v3.8
		c-0.6,0.4-1.5,0.7-2.4,0.7C-372.8,298.2-374,296.9-374,294z"/>
</g>
<g>
	<path class="st0" d="M-385.3,274.2h-0.1l-8-11.1v16.7h-2.4v-20.6h2.5l7.9,11.3l7.9-11.3h2.5v20.7h-2.5v-16.8L-385.3,274.2z"/>
	<path class="st0" d="M-369.1,261.2v-2.5h2.7v2.5H-369.1z M-368.9,279.8v-15.2h2.4v15.3h-2.4V279.8z"/>
</g>
<g>
	<path class="st0" d="M-400.6,259.2v42h-4.7v-42C-405.3,259.2-400.6,259.2-400.6,259.2z"/>
</g>
</svg>
